<svg width="20" height="21" viewBox="0 0 20 21" fill="none" xmlns="http://www.w3.org/2000/svg">
<g clip-path="url(#clip0_47_15409)">
<path d="M18.1468 4.71053H14.0728V2.60526C14.0728 2.04691 13.8582 1.51143 13.4761 1.11662C13.0941 0.721804 12.576 0.5 12.0357 0.5H7.96166C7.42141 0.5 6.90328 0.721804 6.52126 1.11662C6.13924 1.51143 5.92462 2.04691 5.92462 2.60526V4.71053H1.85055C1.58042 4.71053 1.32136 4.82143 1.13035 5.01884C0.939339 5.21624 0.832031 5.48398 0.832031 5.76316C0.832031 6.04233 0.939339 6.31007 1.13035 6.50748C1.32136 6.70489 1.58042 6.81579 1.85055 6.81579H2.86907V18.3947C2.86907 18.9531 3.08368 19.4886 3.4657 19.8834C3.84772 20.2782 4.36585 20.5 4.90611 20.5H15.0913C15.6315 20.5 16.1497 20.2782 16.5317 19.8834C16.9137 19.4886 17.1283 18.9531 17.1283 18.3947V6.81579H18.1468C18.417 6.81579 18.676 6.70489 18.867 6.50748C19.0581 6.31007 19.1654 6.04233 19.1654 5.76316C19.1654 5.48398 19.0581 5.21624 18.867 5.01884C18.676 4.82143 18.417 4.71053 18.1468 4.71053ZM7.96166 2.60526H12.0357V4.71053H7.96166V2.60526ZM8.98018 16.2895C8.98018 16.5686 8.87287 16.8364 8.68186 17.0338C8.49085 17.2312 8.23179 17.3421 7.96166 17.3421C7.69153 17.3421 7.43247 17.2312 7.24146 17.0338C7.05045 16.8364 6.94314 16.5686 6.94314 16.2895V8.92105C6.94314 8.64188 7.05045 8.37414 7.24146 8.17673C7.43247 7.97932 7.69153 7.86842 7.96166 7.86842C8.23179 7.86842 8.49085 7.97932 8.68186 8.17673C8.87287 8.37414 8.98018 8.64188 8.98018 8.92105V16.2895ZM13.0543 16.2895C13.0543 16.5686 12.9469 16.8364 12.7559 17.0338C12.5649 17.2312 12.3059 17.3421 12.0357 17.3421C11.7656 17.3421 11.5065 17.2312 11.3155 17.0338C11.1245 16.8364 11.0172 16.5686 11.0172 16.2895V8.92105C11.0172 8.64188 11.1245 8.37414 11.3155 8.17673C11.5065 7.97932 11.7656 7.86842 12.0357 7.86842C12.3059 7.86842 12.5649 7.97932 12.7559 8.17673C12.9469 8.37414 13.0543 8.64188 13.0543 8.92105V16.2895Z" fill="#999EAF"/>
</g>
<defs>
<clipPath id="clip0_47_15409">
<rect width="20" height="20" fill="white" transform="translate(0 0.5)"/>
</clipPath>
</defs>
</svg>
